<?xml version="1.0" standalone="no"?>
<!DOCTYPE svg PUBLIC "-//W3C//DTD SVG 20010904//EN"
 "http://www.w3.org/TR/2001/REC-SVG-20010904/DTD/svg10.dtd">
<svg version="1.0" xmlns="http://www.w3.org/2000/svg"
 width="1024.000000pt" height="1024.000000pt" viewBox="0 0 1024.000000 1024.000000"
 preserveAspectRatio="xMidYMid meet">

<g transform="translate(0.000000,1024.000000) scale(0.100000,-0.100000)"
fill="#000000" stroke="none">
<path d="M0 5120 l0 -5120 5120 0 5120 0 0 5120 0 5120 -5120 0 -5120 0 0
-5120z m5520 3620 c400 -11 731 -31 1090 -65 290 -28 555 -61 570 -70 5 -3 10
-13 10 -21 0 -29 51 -158 94 -240 191 -358 559 -553 952 -505 55 7 109 15 122
18 l22 5 0 -1136 0 -1136 -125 0 -125 0 0 994 0 994 -77 6 c-382 33 -672 195
-906 505 -42 56 -142 234 -171 307 -2 4 -484 55 -596 64 -864 67 -1559 70
-2330 10 -219 -18 -560 -50 -625 -60 -33 -5 -79 -10 -103 -12 l-43 -2 -45 -95
c-87 -185 -215 -347 -378 -480 -60 -48 -257 -151 -346 -180 -97 -31 -204 -51
-307 -58 l-93 -6 0 -996 0 -996 -123 0 -122 0 -3 1138 c-2 1135 -2 1138 18
1133 11 -3 28 -8 38 -11 9 -2 58 -9 109 -15 149 -16 320 8 463 67 244 100 456
340 555 628 15 44 28 81 30 83 6 7 292 42 460 56 535 45 865 66 1210 75 397
11 400 11 775 1z m-917 -317 c-7 -2 -21 -2 -30 0 -10 3 -4 5 12 5 17 0 24 -2
18 -5z m114 1 c-3 -3 -12 -4 -19 -1 -8 3 -5 6 6 6 11 1 17 -2 13 -5z m-320
-11 c-4 -3 -51 -9 -104 -13 -54 -4 -106 -10 -115 -14 -13 -6 -18 -4 -18 8 0
13 17 16 98 19 53 1 108 4 121 5 13 1 21 -1 18 -5z m71 0 c-10 -2 -26 -2 -35
0 -10 3 -2 5 17 5 19 0 27 -2 18 -5z m1631 -9 c9 -8 -185 -3 -224 6 -26 5 7 6
90 3 72 -3 132 -7 134 -9z m-1989 -12 c-28 -3 -31 -6 -15 -11 11 -5 -30 -10
-95 -14 -63 -4 -194 -13 -290 -22 -96 -8 -206 -17 -245 -20 -115 -10 -113 -9
-145 -81 -19 -41 -34 -63 -41 -58 -7 4 -9 0 -5 -13 7 -22 -94 -190 -113 -186
-6 2 -11 -6 -11 -18 0 -12 -8 -23 -20 -26 -11 -3 -18 -9 -15 -12 2 -4 -2 -8
-10 -8 -16 0 -20 -6 62 114 71 105 101 161 133 251 15 41 28 62 39 62 9 0 68
5 131 11 252 24 785 50 640 31z m157 -8 c-3 -3 -12 -4 -19 -1 -8 3 -5 6 6 6
11 1 17 -2 13 -5z m1810 0 c-3 -3 -12 -4 -19 -1 -8 3 -5 6 6 6 11 1 17 -2 13
-5z m2011 -140 c-32 -31 -58 -60 -58 -65 0 -5 -7 -9 -15 -9 -10 0 -15 -10 -15
-31 0 -16 4 -28 8 -25 5 3 10 -20 11 -51 1 -31 3 -59 5 -62 3 -3 -2 -21 -10
-39 -16 -39 -18 -39 -174 8 -149 46 -149 46 -44 115 49 32 142 94 207 137 65
43 124 78 130 78 7 0 -14 -25 -45 -56z m-379 -77 c-64 -48 -109 -75 -114 -68
-6 10 105 84 114 76 2 -3 2 -6 0 -8z m-4649 -310 c0 -2 -9 -12 -20 -22 -24
-21 -27 -14 -4 9 15 15 24 20 24 13z m-79 -50 c-6 -8 -9 -16 -6 -18 2 -3 -5
-5 -16 -5 -20 0 -20 1 1 18 26 21 37 24 21 5z m-186 -127 c-3 -5 -12 -10 -18
-10 -7 0 -6 4 3 10 19 12 23 12 15 0z m2275 -70 c217 -8 373 -24 525 -51 151
-27 411 -132 614 -249 49 -27 92 -50 96 -50 7 0 3 60 -6 89 -5 17 23 20 104 9
73 -9 137 -35 137 -55 0 -8 -18 -22 -41 -32 l-40 -18 183 -5 c218 -6 296 -22
425 -84 208 -99 322 -266 338 -492 7 -87 4 -114 -15 -194 -41 -170 -63 -156
-65 42 -1 77 -4 143 -8 146 -4 4 -35 -5 -69 -19 -182 -77 -596 -137 -947 -137
-455 0 -1061 63 -1061 110 0 6 -177 165 -204 182 -29 19 18 17 181 -7 210 -32
385 -54 431 -55 48 0 32 17 -52 55 -261 121 -734 226 -753 168 -5 -15 152
-167 260 -252 69 -55 92 -81 70 -81 -5 0 -46 9 -93 21 -113 27 -241 51 -246
46 -5 -5 277 -85 329 -94 21 -3 36 -8 35 -12 -2 -3 -28 -44 -59 -91 -43 -64
-163 -256 -174 -278 -2 -2 -239 45 -265 53 -13 4 -14 27 -12 146 4 167 -12
257 -64 365 -67 137 -168 204 -277 183 -60 -11 -99 -40 -144 -108 -70 -105
-110 -262 -100 -393 6 -69 4 -78 -11 -78 -15 0 -238 65 -488 141 l-71 22 -23
71 c-33 106 -90 320 -85 324 2 2 45 -5 97 -17 127 -28 304 -61 320 -60 27 1
-314 99 -435 125 -93 19 -124 18 -136 -5 -20 -37 19 -115 155 -313 40 -59 70
-109 66 -112 -4 -2 -34 5 -67 15 -33 10 -97 24 -143 31 -76 11 -83 14 -88 38
-50 242 -148 354 -242 275 -41 -34 -60 -80 -78 -183 -8 -48 -17 -96 -21 -106
-5 -19 -6 -19 -16 -1 -15 27 -23 295 -8 295 13 0 34 44 50 106 17 64 71 86
271 113 36 5 53 9 38 10 -27 1 -51 21 -26 21 18 0 229 87 241 99 6 6 -11 4
-37 -4 -47 -14 -150 -29 -279 -41 l-69 -6 4 -35 4 -35 -80 7 c-49 4 -87 13
-96 21 -10 10 -15 35 -15 82 0 61 2 67 20 65 11 -2 57 -8 103 -14 61 -9 132
-9 279 0 108 6 198 9 201 6 3 -2 -1 -11 -8 -20 -17 -21 -3 -19 29 4 88 63 404
183 581 221 102 22 376 55 595 71 88 6 162 13 164 15 5 5 -13 5 271 -6z m3818
-123 c-24 -17 -45 -34 -48 -37 -13 -14 -331 -223 -334 -219 -2 2 -8 14 -15 26
-10 20 -8 25 26 46 44 28 202 119 288 167 33 18 68 39 79 46 10 7 25 10 32 7
10 -4 1 -15 -28 -36z m-4435 -570 c70 -30 147 -149 178 -277 7 -30 13 -111 13
-180 0 -132 -21 -235 -64 -320 -21 -41 -15 -50 31 -50 43 0 15 -19 -38 -26
-113 -15 -195 -10 -239 13 -88 47 -148 138 -178 270 -51 229 30 501 169 564
48 22 84 24 128 6z m-1398 -17 c60 -37 115 -179 115 -300 0 -44 -20 -162 -41
-249 -3 -11 15 -19 66 -31 87 -20 71 -28 -69 -36 -88 -5 -106 -3 -136 14 -104
57 -144 320 -77 512 38 108 75 131 142 90z m-1562 -211 c-24 -226 -24 -688 0
-879 63 -487 197 -932 408 -1353 83 -165 171 -313 296 -499 l93 -138 -304 0
-303 0 -61 113 c-250 462 -366 933 -379 1534 -10 475 49 830 210 1255 29 75
53 135 55 133 2 -2 -5 -77 -15 -166z m7351 -81 c113 -331 160 -599 172 -978
10 -283 -27 -644 -97 -965 -57 -263 -145 -489 -290 -746 l-59 -106 -277 -7
c-153 -4 -294 -10 -315 -12 -21 -3 -38 -3 -38 1 0 4 19 32 43 63 125 163 280
408 359 567 242 483 396 1002 438 1475 22 256 8 706 -30 899 -5 29 -10 56 -9
60 2 16 62 -131 103 -251z m-1556 -91 c3 -126 2 -128 -48 -102 -25 13 -30 22
-30 54 0 53 18 141 32 158 6 8 18 12 27 11 13 -3 16 -23 19 -121z m-3813 13
c310 -90 473 -137 561 -162 l82 -23 15 -70 c8 -38 14 -71 12 -73 -3 -3 -118
16 -345 58 -183 34 -381 68 -503 86 -111 17 -118 20 -113 39 3 11 8 65 12 119
l7 98 36 -7 c20 -3 126 -32 236 -65z m3615 -12 c0 -24 -11 -75 -24 -115 -6
-20 -4 -23 17 -23 13 0 43 6 65 14 38 14 44 13 89 -9 94 -46 94 -46 22 -97
-92 -65 -147 -84 -196 -67 -21 6 -55 23 -75 37 -43 28 -36 28 -273 -6 -219
-32 -400 -45 -653 -46 -217 -1 -233 -2 -228 -19 3 -12 -3 -19 -22 -24 -58 -14
-742 23 -761 42 -7 8 31 83 51 102 18 16 28 16 190 -4 95 -12 175 -20 179 -18
3 3 10 54 14 115 3 60 11 110 16 110 5 0 61 -49 124 -110 63 -60 126 -113 142
-116 35 -9 580 3 748 16 123 10 325 35 372 47 12 3 41 34 68 76 62 95 84 117
112 117 17 0 23 -6 23 -22z m-4863 -100 c-2 -13 -4 -3 -4 22 0 25 2 35 4 23 2
-13 2 -33 0 -45z m5185 -95 c38 -42 41 -61 14 -88 -41 -41 -293 -102 -318 -77
-6 6 -9 14 -6 17 3 4 52 26 109 51 110 47 136 65 150 102 11 29 20 28 51 -5z
m-5185 -150 c-2 -16 -4 -5 -4 22 0 28 2 40 4 28 2 -13 2 -35 0 -50z m2558 33
c109 -22 283 -44 483 -61 210 -17 622 -21 622 -5 0 6 51 10 133 10 187 0 715
39 831 61 66 12 162 11 211 -2 35 -10 38 -12 22 -24 -20 -14 -95 -28 -232 -44
-49 -6 -146 -17 -215 -25 -399 -48 -1012 -80 -1345 -71 -270 7 -628 35 -643
50 -2 2 4 34 13 70 14 51 22 64 34 60 9 -2 48 -11 86 -19z m-2558 -488 c-2
-35 -3 -7 -3 62 0 69 1 97 3 63 2 -35 2 -91 0 -125z m-20 15 c-2 -32 -3 -8 -3
52 0 61 1 87 3 58 2 -29 2 -78 0 -110z m1026 -363 l37 -11 0 -59 c0 -63 -13
-77 -41 -43 -26 30 -91 53 -157 53 -54 0 -67 -4 -87 -25 -51 -50 -20 -88 117
-146 160 -67 217 -133 205 -235 -6 -57 -44 -106 -104 -135 -44 -22 -60 -24
-178 -22 -71 0 -143 5 -160 10 -29 9 -30 12 -35 81 -3 40 -2 72 2 72 4 0 28
-16 53 -35 52 -39 99 -55 168 -55 94 0 145 53 109 114 -13 22 -43 43 -102 73
-142 71 -176 94 -204 136 -19 30 -26 54 -26 89 0 41 5 54 36 88 51 56 103 71
229 66 55 -3 117 -10 138 -16z m3077 -7 c43 -12 66 -28 110 -72 64 -64 90
-128 90 -220 0 -131 -58 -229 -167 -283 l-68 -33 -177 -3 c-98 -2 -178 0 -178
5 0 4 7 17 15 27 22 30 22 548 0 566 -33 27 -15 33 93 28 59 -2 123 -1 142 2
39 8 60 5 140 -17z m-2447 -35 c4 -28 4 -54 2 -56 -3 -3 -22 2 -42 11 -44 19
-177 32 -222 22 l-31 -7 0 -90 0 -90 121 4 121 4 -7 -55 c-4 -31 -8 -57 -10
-59 -2 -2 -17 4 -34 13 -23 11 -53 15 -109 13 l-77 -3 -2 -102 -1 -103 109 0
c91 0 116 3 154 22 24 12 47 19 51 16 3 -4 0 -32 -7 -62 l-12 -56 -234 0
c-128 0 -233 3 -233 8 0 4 7 17 15 30 14 18 15 60 13 286 -3 243 -5 266 -22
285 l-19 21 235 0 235 0 6 -52z m510 41 c150 -41 165 -246 23 -313 l-35 -17
65 -102 c36 -56 86 -121 112 -145 l47 -43 -105 3 -105 3 -78 125 c-73 117 -80
125 -113 128 l-34 3 0 -103 c0 -76 4 -109 15 -124 8 -10 15 -22 15 -26 0 -5
-45 -8 -100 -8 -55 0 -100 2 -100 4 0 2 7 17 15 32 22 42 22 531 0 560 -8 10
-15 22 -15 27 0 11 350 8 393 -4z m719 -44 c3 -61 -4 -67 -49 -38 -20 13 -54
19 -130 21 l-103 4 0 -97 0 -98 115 5 116 4 -2 -54 c-3 -61 -13 -69 -55 -47
-18 9 -56 15 -101 15 l-73 0 0 -106 0 -106 119 4 c96 2 123 6 138 21 11 9 27
17 37 17 12 0 16 -6 12 -17 -2 -10 -8 -37 -11 -60 l-7 -43 -230 0 -230 0 7 23
c14 41 22 220 19 391 -2 135 -6 172 -18 185 -9 10 -16 21 -16 24 0 4 103 7
229 7 l229 0 4 -55z m332 18 c13 -21 59 -92 102 -158 43 -66 98 -151 121 -190
l43 -70 0 196 c0 181 -2 198 -20 222 -11 14 -20 28 -20 31 0 3 38 6 85 6 47 0
85 -3 85 -8 0 -4 -7 -17 -15 -29 -11 -15 -15 -47 -16 -105 0 -46 -3 -174 -6
-285 l-5 -203 -59 0 c-55 0 -60 2 -93 38 -19 21 -75 98 -123 172 -48 75 -104
158 -123 185 l-35 50 -3 -193 c-2 -160 0 -197 13 -215 8 -12 15 -25 15 -29 0
-5 -39 -8 -86 -8 l-85 0 20 29 c20 28 21 42 21 288 0 247 -1 261 -20 278 -11
10 -20 22 -20 27 0 4 45 8 100 8 l100 0 24 -37z m1367 8 c-20 -28 -21 -42 -21
-288 0 -247 1 -261 20 -278 11 -10 20 -22 20 -27 0 -4 -49 -8 -110 -8 -60 0
-110 3 -110 8 0 4 7 16 15 26 12 16 15 67 15 281 0 214 -3 265 -15 281 -8 10
-15 22 -15 27 0 4 50 7 111 7 l110 0 -20 -29z m497 14 c108 -46 130 -159 46
-243 l-33 -33 32 -14 c61 -25 97 -81 97 -147 0 -63 -34 -116 -95 -147 -47 -25
-58 -26 -247 -29 -109 -2 -198 0 -198 3 0 4 9 18 20 32 19 24 20 41 20 282 0
211 -3 261 -15 277 -8 10 -15 22 -15 27 0 4 79 7 175 7 136 0 184 -4 213 -15z
m-6098 -759 c0 -21 -14 -31 -102 -74 -153 -73 -243 -112 -261 -112 -24 0 -3
13 298 186 51 30 65 30 65 0z m69 -198 c28 -83 38 -125 31 -133 -5 -7 -28 -20
-50 -30 -22 -10 -40 -23 -40 -29 0 -24 162 -266 229 -340 20 -23 43 -54 51
-70 8 -16 27 -38 43 -49 15 -12 27 -27 27 -34 0 -39 348 -425 550 -609 438
-399 892 -709 1445 -989 366 -184 645 -308 985 -436 85 -32 148 -58 139 -59
-36 0 -249 43 -416 85 -662 166 -1269 450 -1793 838 -371 276 -709 629 -955
1000 -41 62 -64 87 -74 83 -9 -2 -115 -48 -236 -101 -621 -274 -755 -330 -815
-342 -20 -4 -22 -2 -10 6 8 6 11 11 6 11 -22 0 81 81 137 108 34 16 150 73
257 125 285 140 530 257 573 274 20 8 37 19 37 24 0 4 -24 57 -54 116 -29 59
-75 162 -101 228 -26 66 -48 121 -49 122 -2 2 -25 -8 -52 -21 -27 -13 -121
-56 -209 -96 -88 -39 -200 -90 -248 -112 -107 -49 -181 -59 -133 -19 8 7 18
27 22 44 3 18 12 35 18 39 8 6 7 8 -1 8 -7 0 -13 7 -13 15 0 8 -6 15 -12 15
-9 0 -8 3 2 10 25 16 0 25 -62 23 l-61 -2 49 33 c49 33 139 82 399 216 77 40
182 95 233 121 51 27 97 49 101 49 5 0 27 -55 50 -122z m6941 104 c0 -36 -149
-342 -228 -470 -117 -188 -281 -370 -403 -447 -9 -5 -79 -52 -155 -104 -168
-114 -559 -340 -899 -520 -137 -73 -275 -145 -305 -162 -30 -16 -121 -63 -202
-104 l-148 -75 -2 107 c-7 259 8 319 101 416 49 52 78 70 236 148 99 48 289
138 422 198 563 258 721 343 839 454 135 126 242 299 290 470 l28 97 213 0
c117 0 213 -4 213 -8z m-5756 -99 c43 -157 136 -314 253 -429 89 -88 197 -155
388 -241 39 -17 138 -63 220 -101 83 -38 227 -104 320 -147 94 -42 261 -122
372 -175 179 -88 208 -106 266 -162 69 -67 101 -126 117 -209 12 -61 13 -309
3 -309 -13 0 -500 242 -693 345 -261 139 -759 425 -930 535 -217 139 -359 276
-505 485 -108 156 -272 454 -257 469 3 3 100 6 216 6 l211 0 19 -67z m1884
-119 c50 -33 51 -106 3 -146 l-27 -23 37 -59 c21 -33 48 -65 61 -72 l23 -13
-27 -2 c-16 -1 -33 -2 -40 -3 -6 -1 -32 31 -57 69 -44 67 -49 70 -89 73 l-42
3 0 -60 c0 -37 5 -63 12 -68 8 -4 0 -10 -22 -14 -39 -8 -57 -2 -41 14 16 16
15 293 -1 304 -15 9 87 20 147 15 22 -2 50 -10 63 -18z m457 -130 c39 -85 75
-160 82 -166 22 -18 14 -24 -26 -20 -26 3 -38 8 -35 16 3 7 -2 29 -11 49 l-15
37 -84 0 -83 0 -18 -39 c-9 -22 -14 -44 -11 -50 5 -7 -6 -11 -30 -11 l-37 0
21 23 c11 12 46 78 77 147 59 132 80 170 93 170 5 0 39 -70 77 -156z m790 146
c21 0 23 -3 16 -27 -11 -39 -12 -166 -3 -240 l8 -61 -30 -6 c-16 -4 -34 -2
-40 4 -7 7 -6 10 2 10 15 0 17 296 2 305 -16 10 -11 28 6 21 9 -3 26 -6 39 -6z
m-1635 -26 c0 -20 -3 -24 -12 -16 -7 5 -34 13 -60 17 l-48 7 -2 -108 c-1 -60
-2 -118 -2 -129 0 -11 3 -34 7 -51 6 -31 5 -32 -28 -30 -32 3 -63 16 -37 16 9
0 12 42 12 150 0 149 0 150 -22 150 -13 -1 -41 -7 -63 -15 -22 -8 -41 -15 -41
-15 -1 0 1 11 4 25 l4 25 144 0 144 0 0 -26z m1300 20 c76 -16 130 -110 111
-195 -21 -93 -69 -125 -201 -135 l-95 -6 3 156 c3 113 0 161 -8 171 -11 13 -1
15 73 15 46 0 99 -3 117 -6z m602 -4 c6 -18 163 -219 176 -224 9 -4 12 21 12
108 0 82 -4 116 -12 119 -7 3 5 6 27 6 30 1 36 -2 27 -11 -8 -8 -12 -59 -12
-166 0 -123 -3 -153 -13 -150 -8 2 -61 61 -118 133 l-104 130 -3 -119 c-2 -78
1 -123 9 -132 9 -12 5 -14 -27 -14 -30 0 -35 3 -26 12 15 15 17 271 2 299 -10
17 -7 19 24 19 19 0 36 -4 38 -10z m648 1 c15 -4 26 -15 28 -29 l3 -21 -47 20
c-66 30 -119 22 -161 -25 -33 -35 -39 -63 -33 -136 5 -58 69 -110 135 -110 61
0 75 14 75 70 0 28 -4 50 -10 50 -5 0 -10 5 -10 10 0 6 18 10 40 10 22 0 40
-4 40 -10 0 -5 -4 -10 -10 -10 -6 0 -10 -26 -10 -59 0 -58 -1 -60 -32 -70 -94
-28 -153 -21 -209 26 -92 78 -69 238 41 282 28 11 123 12 160 2z m2590 -118
c-55 -171 -169 -409 -284 -592 -163 -260 -304 -432 -574 -700 -113 -113 -198
-202 -188 -198 10 4 15 3 11 -4 -4 -5 -15 -7 -24 -4 -11 3 -25 -3 -36 -15 -20
-22 -8 -28 15 -7 12 10 12 9 0 -6 -7 -10 -20 -15 -28 -12 -8 3 -22 -2 -31 -10
-52 -51 -429 -302 -606 -404 -161 -93 -565 -287 -565 -271 0 6 -4 10 -10 10
-5 0 -10 -6 -10 -13 0 -21 -387 -160 -645 -231 -123 -33 -494 -116 -519 -116
-15 1 37 23 154 67 94 35 185 73 530 220 354 151 748 358 1026 538 579 376
1101 845 1480 1330 93 120 261 367 290 427 22 47 30 42 14 -9z m-6440 -695
c63 -47 160 -115 215 -151 168 -110 728 -413 1235 -670 l305 -154 3 -241 c2
-227 1 -241 -15 -235 -40 14 -470 225 -645 316 -389 202 -662 359 -988 571
-428 277 -716 499 -929 715 l-105 106 310 5 309 5 95 -90 c52 -50 147 -129
210 -177z m5880 240 c0 -26 -326 -327 -485 -447 -38 -29 -81 -61 -95 -72 -119
-92 -668 -446 -874 -563 -265 -150 -1182 -626 -1207 -626 -5 0 -9 99 -9 239
l0 239 93 50 c50 27 197 102 325 167 388 195 731 379 962 516 225 132 554 380
625 470 l30 38 318 1 c233 0 317 -3 317 -12z m-370 -1057 c0 -4 -11 -25 -25
-45 -14 -20 -25 -43 -25 -51 0 -8 -15 -17 -37 -21 -38 -7 -77 -28 -79 -42 0
-4 -6 -20 -12 -35 -7 -16 -12 -32 -12 -38 0 -15 -80 -60 -103 -57 -18 2 -22 9
-21 34 1 23 15 44 54 83 29 28 62 51 72 51 16 0 111 73 152 117 13 14 36 17
36 4z m-203 -68 c-4 -3 -2 -12 4 -20 6 -7 9 -13 5 -13 -3 0 -9 0 -13 0 -5 0
-8 3 -8 8 0 4 -4 13 -8 20 -5 8 -2 12 9 12 10 0 14 -3 11 -7z m-3296 -208 c57
-27 191 -93 297 -145 l193 -96 197 99 c108 55 239 120 290 143 l92 43 0 -243
0 -243 -97 -46 c-54 -25 -145 -66 -203 -90 -58 -25 -146 -63 -195 -85 -56 -24
-96 -36 -105 -31 -8 4 -60 28 -115 52 -55 24 -184 81 -287 128 l-187 84 -1
243 c0 134 4 242 9 240 4 -1 55 -25 112 -53z m916 -791 c-3 -3 -12 -4 -19 -1
-8 3 -5 6 6 6 11 1 17 -2 13 -5z"/>
<path d="M3993 8383 c9 -2 23 -2 30 0 6 3 -1 5 -18 5 -16 0 -22 -2 -12 -5z"/>
<path d="M3242 8133 c-13 -19 -21 -37 -19 -39 3 -3 15 11 27 31 29 47 22 54
-8 8z"/>
<path d="M3160 8010 c0 -5 5 -10 11 -10 5 0 7 5 4 10 -3 6 -8 10 -11 10 -2 0
-4 -4 -4 -10z"/>
<path d="M4820 7504 c-68 -8 -479 -45 -529 -47 -28 -1 -51 -4 -51 -7 1 -3 18
-17 39 -32 45 -31 231 -237 231 -256 0 -9 8 -10 28 -5 15 4 90 7 167 6 193 -1
449 -52 634 -125 40 -16 76 -27 78 -24 12 12 -225 95 -346 121 -172 38 -112
44 554 55 292 5 547 13 568 17 l37 8 -118 66 c-225 127 -403 190 -593 209
-114 12 -633 22 -699 14z"/>
<path d="M3995 7409 c-121 -15 -272 -75 -472 -186 -35 -19 -63 -38 -63 -43 0
-8 69 -29 205 -60 49 -12 110 -33 134 -47 l45 -26 112 11 c61 7 138 12 171 12
33 0 89 9 124 20 35 10 83 24 107 30 43 11 61 25 20 15 -31 -7 -37 -2 -101 97
-93 141 -171 190 -282 177z m133 -184 c25 -21 82 -103 82 -118 0 -2 -43 -7
-95 -11 -52 -3 -137 -9 -188 -12 l-93 -7 -12 27 c-16 35 -15 83 1 93 15 9 211
50 249 52 15 1 39 -10 56 -24z"/>
<path d="M7143 7008 c-4 -7 -23 -49 -41 -93 -18 -44 -36 -86 -39 -92 -8 -19
24 -16 90 7 31 11 72 20 91 20 l35 0 -17 47 c-17 47 -79 123 -100 123 -6 0
-14 -6 -19 -12z"/>
<path d="M5470 6995 c0 -7 61 -37 66 -33 2 3 -12 12 -31 21 -19 9 -35 15 -35
12z"/>
<path d="M6510 6756 l-55 -12 78 -33 c44 -18 85 -30 93 -27 9 3 14 20 14 46 0
40 0 40 -37 39 -21 -1 -63 -7 -93 -13z"/>
<path d="M4333 6834 c-32 -16 -44 -34 -23 -34 10 0 29 -38 64 -131 11 -31 26
-58 31 -59 6 -1 29 37 53 85 41 85 42 88 25 107 -43 48 -96 59 -150 32z"/>
<path d="M4258 6760 c-24 -42 -58 -164 -58 -209 0 -17 5 -19 38 -15 70 10 81
14 101 43 23 32 20 47 -27 151 -11 25 -22 52 -24 60 -3 9 -14 -2 -30 -30z"/>
<path d="M4506 6725 c-4 -21 -19 -61 -33 -88 -20 -41 -23 -58 -18 -98 5 -37 3
-55 -11 -78 -17 -29 -17 -30 19 -106 21 -42 37 -86 37 -96 0 -36 19 -19 41 39
20 50 23 75 24 197 0 128 -2 146 -26 205 l-26 65 -7 -40z"/>
<path d="M4200 6479 c0 -24 5 -64 11 -88 11 -51 49 -141 58 -141 3 0 11 15 17
33 6 17 23 59 36 93 l25 60 -22 28 c-12 15 -37 31 -56 36 -19 4 -42 11 -51 15
-16 6 -18 1 -18 -36z"/>
<path d="M4361 6365 c-17 -38 -40 -88 -51 -109 -22 -44 -17 -56 31 -82 38 -19
62 -18 108 6 41 21 58 45 36 53 -14 6 -62 100 -81 162 l-12 40 -31 -70z"/>
<path d="M2975 6836 c-26 -40 -55 -124 -55 -160 0 -28 4 -35 27 -40 44 -12 52
14 27 87 -9 26 -14 52 -11 59 6 17 46 -70 47 -102 1 -23 2 -23 19 10 10 19 24
54 31 77 11 36 11 46 -4 68 -22 33 -60 33 -81 1z"/>
<path d="M3071 6711 c-13 -36 -24 -90 -25 -120 -1 -45 -4 -55 -17 -53 -11 1
-24 -18 -42 -63 -31 -74 -26 -100 20 -111 21 -6 32 -1 54 24 15 17 33 48 39
69 18 61 22 202 8 263 l-13 55 -24 -64z"/>
<path d="M2970 6600 c0 -6 -11 -8 -25 -4 -24 6 -25 5 -24 -42 0 -27 6 -65 14
-84 l13 -35 12 30 c14 33 26 145 16 145 -3 0 -6 -5 -6 -10z"/>
<path d="M6095 5065 l0 -235 35 -1 c107 -5 164 22 202 94 19 35 22 58 23 142
0 88 -3 105 -25 145 -38 68 -78 90 -164 90 l-71 0 0 -235z"/>
<path d="M4150 5190 l0 -120 39 0 c84 0 161 60 161 126 0 79 -45 114 -146 114
l-54 0 0 -120z"/>
<path d="M7070 5215 l0 -95 45 0 c55 0 110 21 124 48 20 38 13 82 -18 113 -26
26 -36 29 -90 29 l-61 0 0 -95z"/>
<path d="M7074 5041 c-2 -2 -4 -51 -4 -108 l0 -103 70 0 c81 0 120 16 138 55
20 43 14 82 -16 116 -26 29 -35 33 -106 38 -42 4 -79 5 -82 2z"/>
<path d="M4170 4220 l0 -70 58 0 c78 0 106 28 89 91 -8 32 -44 49 -102 49
l-45 0 0 -70z"/>
<path d="M4666 4188 c-14 -35 -26 -66 -26 -70 0 -5 27 -8 60 -8 34 0 60 4 60
10 0 11 -58 130 -64 130 -1 0 -15 -28 -30 -62z"/>
<path d="M5107 4283 c-4 -3 -7 -69 -7 -145 l0 -138 58 0 c70 0 117 26 138 75
33 79 5 162 -66 197 -34 18 -110 24 -123 11z"/>
</g>
</svg>
